<svg width="195" height="48" viewBox="0 0 195 48" fill="none" xmlns="http://www.w3.org/2000/svg">
<path d="M40.1137 15.5013L40.1063 10.2881L30.4861 4V8.02159L36.8316 12.1996L36.8365 15.402L33.8887 17.3979L31.8776 15.9307V13.4458L28.6005 11.2041V15.7272L23.4056 18.9147L23.3958 27.3352L19.7228 29.4031L17.8371 27.926V25.4882L20.0694 23.959V23.9392V20.1658L16.0522 22.8543L12.9815 20.856L10.1764 22.693L14.5599 25.6943V27.5363L11.4007 29.6737L8.17759 27.4916V20.2304L12.9618 16.9907L12.9668 13.8753L19.1032 17.8273L24.2612 14.3941L21.1167 12.5595L19.059 13.9472L14.5771 10.9832L19.6318 8.03649L24.0104 10.6034V6.7754L19.6367 4.211L9.69449 10.0076L9.68712 15.2232L4.90039 18.4653V29.2566L9.68712 32.4987L9.69449 37.7144L19.3147 44V39.9809L12.9692 35.8029L12.9643 32.6005L15.9121 30.6046L17.9231 32.0717V34.5567L21.2003 36.7984V32.2753L26.4689 29.0878L26.5279 20.6673L30.078 18.5994L31.9637 20.0765V22.5142L29.7314 24.0434V24.0633V27.8366L33.7486 25.1481L36.8193 27.1465L39.6244 25.3095L35.2409 22.3057V20.4662L38.4001 18.3288L41.6232 20.5109V27.7721L36.8389 31.0117L36.834 34.1272L30.6976 30.1727L25.5396 33.5836L28.684 35.4156L30.7418 34.0552L35.2237 37.0193L30.169 39.966L25.7904 37.3991V41.2246L30.1641 43.789L40.1063 37.9949L40.1137 32.7792L44.9004 29.5371V18.7434L40.1137 15.5013Z" fill="#0084FF"/>
<path d="M60.9004 34.7038V14.3402H69.3919C70.9165 14.3402 72.1925 14.5556 73.22 14.9865C74.2541 15.4174 75.0297 16.0206 75.5467 16.7962C76.0704 17.5717 76.3322 18.4699 76.3322 19.4908C76.3322 20.2663 76.1698 20.959 75.845 21.5689C75.5202 22.1721 75.0727 22.6726 74.5027 23.0703C73.9326 23.468 73.273 23.7464 72.524 23.9055V24.1044C73.3459 24.1442 74.1049 24.3662 74.801 24.7706C75.5036 25.175 76.0671 25.7384 76.4913 26.4609C76.9155 27.1768 77.1277 28.0253 77.1277 29.0064C77.1277 30.1001 76.8493 31.0779 76.2924 31.9396C75.7356 32.7947 74.9302 33.4709 73.8762 33.968C72.8223 34.4586 71.5429 34.7038 70.0382 34.7038H60.9004ZM65.8223 30.7365H68.8649C69.9321 30.7365 70.7176 30.5343 71.2214 30.13C71.7318 29.7256 71.987 29.1622 71.987 28.4396C71.987 27.916 71.8644 27.4652 71.6191 27.0874C71.3739 26.7029 71.0259 26.4079 70.5751 26.2024C70.1243 25.9903 69.5841 25.8842 68.9544 25.8842H65.8223V30.7365ZM65.8223 22.7124H68.5467C69.0836 22.7124 69.5609 22.6229 69.9785 22.4439C70.3961 22.2649 70.7209 22.0064 70.9529 21.6683C71.1916 21.3303 71.3109 20.9226 71.3109 20.4453C71.3109 19.7625 71.069 19.2256 70.5851 18.8345C70.1011 18.4434 69.4482 18.2479 68.6262 18.2479H65.8223V22.7124Z" fill="#141718"/>
<path d="M78.3741 34.7038V19.4311H83.0972V22.2152H83.2562C83.5347 21.2076 83.9887 20.4586 84.6185 19.968C85.2482 19.4709 85.9807 19.2223 86.8159 19.2223C87.0413 19.2223 87.2733 19.2389 87.5119 19.272C87.7506 19.2985 87.9726 19.3416 88.1781 19.4013V23.6271C87.9461 23.5476 87.6412 23.4846 87.2633 23.4382C86.8921 23.3918 86.5607 23.3686 86.269 23.3686C85.6923 23.3686 85.172 23.4979 84.7079 23.7564C84.2506 24.0083 83.8893 24.3629 83.6241 24.8203C83.3656 25.2711 83.2364 25.8014 83.2364 26.4112V34.7038H78.3741Z" fill="#141718"/>
<path d="M92.7705 34.9624C91.796 34.9624 90.931 34.8 90.1753 34.4751C89.4263 34.1437 88.833 33.6465 88.3955 32.9837C87.9646 32.3142 87.7492 31.4756 87.7492 30.468C87.7492 29.6196 87.8983 28.9036 88.1966 28.3203C88.4949 27.737 88.9059 27.263 89.4296 26.8984C89.9532 26.5339 90.5565 26.2588 91.2392 26.0732C91.922 25.8809 92.6512 25.7517 93.4267 25.6854C94.2951 25.6058 94.9944 25.523 95.5247 25.4368C96.055 25.344 96.4395 25.2147 96.6781 25.049C96.9234 24.8767 97.046 24.6347 97.046 24.3232V24.2734C97.046 23.763 96.8704 23.3686 96.5191 23.0902C96.1677 22.8118 95.6938 22.6726 95.0972 22.6726C94.4542 22.6726 93.9371 22.8118 93.546 23.0902C93.1549 23.3686 92.9064 23.7531 92.8003 24.2436L88.3159 24.0845C88.4485 23.1565 88.7899 22.3279 89.3401 21.5987C89.8969 20.8629 90.6592 20.2862 91.627 19.8686C92.6014 19.4444 93.7714 19.2322 95.137 19.2322C96.1114 19.2322 97.0096 19.3482 97.8316 19.5803C98.6535 19.8056 99.3694 20.1371 99.9793 20.5746C100.589 21.0054 101.06 21.5357 101.391 22.1655C101.729 22.7952 101.898 23.5144 101.898 24.3232V34.7038H97.3245V32.576H97.2051C96.9334 33.093 96.5853 33.5305 96.1611 33.8885C95.7435 34.2465 95.2496 34.5149 94.6796 34.6939C94.1161 34.8729 93.4798 34.9624 92.7705 34.9624ZM94.2719 31.7805C94.7956 31.7805 95.2662 31.6745 95.6838 31.4624C96.1081 31.2502 96.4461 30.9586 96.698 30.5874C96.9499 30.2095 97.0759 29.772 97.0759 29.2749V27.8232C96.9367 27.8961 96.7676 27.9624 96.5688 28.022C96.3765 28.0817 96.1644 28.138 95.9324 28.1911C95.7004 28.2441 95.4618 28.2905 95.2165 28.3303C94.9712 28.37 94.7359 28.4065 94.5105 28.4396C94.0531 28.5125 93.662 28.6252 93.3372 28.7777C93.0191 28.9302 92.7738 29.129 92.6014 29.3743C92.4357 29.6129 92.3529 29.898 92.3529 30.2294C92.3529 30.7332 92.5318 31.1177 92.8898 31.3828C93.2544 31.648 93.7151 31.7805 94.2719 31.7805Z" fill="#141718"/>
<path d="M103.751 34.7038V19.4311H108.614V34.7038H103.751ZM106.187 17.6513C105.505 17.6513 104.918 17.4259 104.427 16.9751C103.937 16.5178 103.692 15.9676 103.692 15.3246C103.692 14.6882 103.937 14.1447 104.427 13.6939C104.918 13.2365 105.505 13.0078 106.187 13.0078C106.877 13.0078 107.463 13.2365 107.947 13.6939C108.438 14.1447 108.683 14.6882 108.683 15.3246C108.683 15.9676 108.438 16.5178 107.947 16.9751C107.463 17.4259 106.877 17.6513 106.187 17.6513Z" fill="#141718"/>
<path d="M115.451 25.9936V34.7038H110.588V19.4311H115.212V22.2351H115.381C115.719 21.3004 116.296 20.5679 117.111 20.0376C117.926 19.5007 118.898 19.2322 120.024 19.2322C121.098 19.2322 122.03 19.4742 122.818 19.9581C123.614 20.4354 124.23 21.1049 124.668 21.9666C125.112 22.8217 125.331 23.8227 125.324 24.9695V34.7038H120.462V25.924C120.469 25.0755 120.253 24.4126 119.816 23.9354C119.385 23.4581 118.785 23.2195 118.016 23.2195C117.505 23.2195 117.055 23.3322 116.664 23.5575C116.279 23.7763 115.981 24.0911 115.769 24.5021C115.563 24.9131 115.457 25.4103 115.451 25.9936Z" fill="#141718"/>
<path d="M130.068 34.7038L126.091 19.4311H130.973L133.031 29.2152H133.16L135.368 19.4311H140.131L142.398 29.1456H142.527L144.526 19.4311H149.408L145.42 34.7038H140.22L137.834 25.8047H137.665L135.278 34.7038H130.068Z" fill="#141718"/>
<path d="M154.544 34.9624C153.57 34.9624 152.705 34.8 151.949 34.4751C151.2 34.1437 150.607 33.6465 150.169 32.9837C149.739 32.3142 149.523 31.4756 149.523 30.468C149.523 29.6196 149.672 28.9036 149.971 28.3203C150.269 27.737 150.68 27.263 151.203 26.8984C151.727 26.5339 152.33 26.2588 153.013 26.0732C153.696 25.8809 154.425 25.7517 155.201 25.6854C156.069 25.6058 156.768 25.523 157.299 25.4368C157.829 25.344 158.213 25.2147 158.452 25.049C158.697 24.8767 158.82 24.6347 158.82 24.3232V24.2734C158.82 23.763 158.644 23.3686 158.293 23.0902C157.942 22.8118 157.468 22.6726 156.871 22.6726C156.228 22.6726 155.711 22.8118 155.32 23.0902C154.929 23.3686 154.68 23.7531 154.574 24.2436L150.09 24.0845C150.222 23.1565 150.564 22.3279 151.114 21.5987C151.671 20.8629 152.433 20.2862 153.401 19.8686C154.375 19.4444 155.545 19.2322 156.911 19.2322C157.885 19.2322 158.783 19.3482 159.605 19.5803C160.427 19.8056 161.143 20.1371 161.753 20.5746C162.363 21.0054 162.834 21.5357 163.165 22.1655C163.503 22.7952 163.672 23.5144 163.672 24.3232V34.7038H159.098V32.576H158.979C158.707 33.093 158.359 33.5305 157.935 33.8885C157.517 34.2465 157.024 34.5149 156.453 34.6939C155.89 34.8729 155.254 34.9624 154.544 34.9624ZM156.046 31.7805C156.569 31.7805 157.04 31.6745 157.458 31.4624C157.882 31.2502 158.22 30.9586 158.472 30.5874C158.724 30.2095 158.85 29.772 158.85 29.2749V27.8232C158.711 27.8961 158.542 27.9624 158.343 28.022C158.15 28.0817 157.938 28.138 157.706 28.1911C157.474 28.2441 157.236 28.2905 156.99 28.3303C156.745 28.37 156.51 28.4065 156.284 28.4396C155.827 28.5125 155.436 28.6252 155.111 28.7777C154.793 28.9302 154.548 29.129 154.375 29.3743C154.21 29.6129 154.127 29.898 154.127 30.2294C154.127 30.7332 154.306 31.1177 154.664 31.3828C155.028 31.648 155.489 31.7805 156.046 31.7805Z" fill="#141718"/>
<path d="M179.794 19.4311L174.554 34.7038H168.985L163.755 19.4311H168.876L171.69 29.951H171.849L174.673 19.4311H179.794Z" fill="#141718"/>
<path d="M187.185 34.9922C185.588 34.9922 184.209 34.6773 183.049 34.0476C181.895 33.4112 181.007 32.5064 180.384 31.3331C179.767 30.1532 179.459 28.7512 179.459 27.1271C179.459 25.5495 179.771 24.1707 180.394 22.9908C181.017 21.8042 181.895 20.8828 183.029 20.2266C184.162 19.5637 185.498 19.2322 187.036 19.2322C188.123 19.2322 189.117 19.4013 190.019 19.7393C190.92 20.0774 191.699 20.5779 192.356 21.2408C193.012 21.9036 193.522 22.7223 193.887 23.6967C194.251 24.6645 194.434 25.7749 194.434 27.0277V28.2408H181.16V25.4169H189.909C189.903 24.8999 189.78 24.4392 189.542 24.0348C189.303 23.6304 188.975 23.3156 188.557 23.0902C188.146 22.8582 187.672 22.7422 187.135 22.7422C186.592 22.7422 186.105 22.8648 185.674 23.1101C185.243 23.3487 184.901 23.6768 184.65 24.0945C184.398 24.5054 184.265 24.9728 184.252 25.4965V28.37C184.252 28.9931 184.374 29.54 184.62 30.0107C184.865 30.4747 185.213 30.8359 185.664 31.0945C186.115 31.353 186.651 31.4822 187.275 31.4822C187.705 31.4822 188.097 31.4226 188.448 31.3033C188.799 31.184 189.101 31.0083 189.353 30.7763C189.605 30.5443 189.793 30.2592 189.919 29.9212L194.384 30.0504C194.198 31.0514 193.791 31.9231 193.161 32.6655C192.538 33.4013 191.719 33.9747 190.705 34.3857C189.691 34.79 188.517 34.9922 187.185 34.9922Z" fill="#141718"/>
</svg>
