<svg width="41" height="40" viewBox="0 0 41 40" fill="none" xmlns="http://www.w3.org/2000/svg">
<path d="M35.4466 11.5013L35.4393 6.28809L25.8191 0V4.02159L32.1645 8.19959L32.1694 11.402L29.2217 13.3979L27.2106 11.9307V9.44579L23.9334 7.20412V11.7272L18.7386 14.9147L18.7288 23.3352L15.0557 25.4031L13.1701 23.926V21.4882L15.4024 19.959V19.9392V16.1658L11.3852 18.8543L8.3145 16.856L5.50933 18.693L9.89286 21.6943V23.5363L6.73368 25.6737L3.51056 23.4916V16.2304L8.29483 12.9907L8.29975 9.87526L14.4362 13.8273L19.5942 10.3941L16.4497 8.55954L14.3919 9.94724L9.91007 6.98317L14.9648 4.03649L19.3434 6.60336V2.7754L14.9697 0.211004L5.02747 6.00757L5.02009 11.2232L0.233368 14.4653V25.2566L5.02009 28.4987L5.02747 33.7144L14.6476 40V35.9809L8.3022 31.8029L8.29729 28.6005L11.245 26.6046L13.2561 28.0717V30.5567L16.5333 32.7984V28.2753L21.8019 25.0878L21.8609 16.6673L25.411 14.5994L27.2967 16.0765V18.5142L25.0643 20.0434V20.0633V23.8366L29.0816 21.1481L32.1522 23.1465L34.9574 21.3095L30.5739 18.3057V16.4662L33.7331 14.3288L36.9562 16.5109V23.7721L32.1719 27.0117L32.167 30.1272L26.0305 26.1727L20.8726 29.5836L24.017 31.4156L26.0748 30.0552L30.5567 33.0193L25.502 35.966L21.1234 33.3991V37.2246L25.497 39.789L35.4393 33.9949L35.4466 28.7792L40.2334 25.5371V14.7434L35.4466 11.5013Z" fill="#0084FF"/>
</svg>
